{
    "asset" : {
        "generator" : "Khronos glTF Blender I/O v1.4.40",
        "version" : "2.0"
    },
    "scene" : 0,
    "scenes" : [
        {
            "name" : "Scene",
            "nodes" : [
                4
            ]
        }
    ],
    "nodes" : [
        {
            "mesh" : 0,
            "name" : "backback_Material_0"
        },
        {
            "children" : [
                0
            ],
            "name" : "backback",
            "rotation" : [
                -0.7071068286895752,
                0,
                0,
                0.7071067094802856
            ],
            "scale" : [
                100,
                100,
                100
            ],
            "translation" : [
                -2.4647912979125977,
                26.684688568115234,
                -0.7946252822875977
            ]
        },
        {
            "children" : [
                1
            ],
            "name" : "RootNode"
        },
        {
            "children" : [
                2
            ],
            "name" : "backpack.fbx",
            "rotation" : [
                0.7071068286895752,
                0,
                0,
                0.7071068286895752
            ],
            "scale" : [
                0.009999999776482582,
                0.009999999776482582,
                0.009999999776482582
            ]
        },
        {
            "children" : [
                3
            ],
            "name" : "Sketchfab_model",
            "rotation" : [
                -0.7071068286895752,
                0,
                0,
                0.7071068286895752
            ],
            "scale" : [
                0.9304014444351196,
                0.9304014444351196,
                0.9304014444351196
            ]
        }
    ],
    "materials" : [
        {
            "doubleSided" : true,
            "name" : "Material.001",
            "normalTexture" : {
                "index" : 0,
                "texCoord" : 0
            },
            "pbrMetallicRoughness" : {
                "baseColorTexture" : {
                    "index" : 1,
                    "texCoord" : 0
                },
                "metallicFactor" : 0,
                "roughnessFactor" : 0.715046763420105
            }
        }
    ],
    "meshes" : [
        {
            "name" : "backback_Material_0",
            "primitives" : [
                {
                    "attributes" : {
                        "POSITION" : 0,
                        "NORMAL" : 1,
                        "TEXCOORD_0" : 2,
                        "TEXCOORD_1" : 3
                    },
                    "indices" : 4,
                    "material" : 0
                }
            ]
        }
    ],
    "textures" : [
        {
            "sampler" : 0,
            "source" : 0
        },
        {
            "sampler" : 0,
            "source" : 1
        }
    ],
    "images" : [
        {
            "bufferView" : 5,
            "mimeType" : "image/png",
            "name" : "Material_normal"
        },
        {
            "bufferView" : 6,
            "mimeType" : "image/png",
            "name" : "Material_baseColor"
        }
    ],
    "accessors" : [
        {
            "bufferView" : 0,
            "componentType" : 5126,
            "count" : 927,
            "max" : [
                0.1649366021156311,
                0.27542737126350403,
                0.35600903630256653
            ],
            "min" : [
                -0.3974286913871765,
                -0.19076135754585266,
                -0.18841445446014404
            ],
            "type" : "VEC3"
        },
        {
            "bufferView" : 1,
            "componentType" : 5126,
            "count" : 927,
            "type" : "VEC3"
        },
        {
            "bufferView" : 2,
            "componentType" : 5126,
            "count" : 927,
            "type" : "VEC2"
        },
        {
            "bufferView" : 3,
            "componentType" : 5126,
            "count" : 927,
            "type" : "VEC2"
        },
        {
            "bufferView" : 4,
            "componentType" : 5123,
            "count" : 4194,
            "type" : "SCALAR"
        }
    ],
    "bufferViews" : [
        {
            "buffer" : 0,
            "byteLength" : 11124,
            "byteOffset" : 0
        },
        {
            "buffer" : 0,
            "byteLength" : 11124,
            "byteOffset" : 11124
        },
        {
            "buffer" : 0,
            "byteLength" : 7416,
            "byteOffset" : 22248
        },
        {
            "buffer" : 0,
            "byteLength" : 7416,
            "byteOffset" : 29664
        },
        {
            "buffer" : 0,
            "byteLength" : 8388,
            "byteOffset" : 37080
        },
        {
            "buffer" : 0,
            "byteLength" : 945747,
            "byteOffset" : 45468
        },
        {
            "buffer" : 0,
            "byteLength" : 1513508,
            "byteOffset" : 991216
        }
    ],
    "samplers" : [
        {
            "magFilter" : 9729,
            "minFilter" : 9986
        }
    ],
    "buffers" : [
        {
            "byteLength" : 2504724,
            "uri" : "data:application/octet-stream;base64,"
        }
    ]
}
